<svg width="24" height="16" viewBox="0 0 24 16" fill="none" xmlns="http://www.w3.org/2000/svg">
<path d="M4.34626 12.151H17.7444C17.8766 12.151 18.003 12.0974 18.0947 12.0024L20.0519 9.93473C20.1366 9.84553 20.1831 9.72673 20.1814 9.60381V4.48045C20.1809 4.35921 20.1346 4.24284 20.0519 4.15421L18.1187 2.08658C18.0281 1.98951 17.9015 1.93404 17.7684 1.93311H4.34626C4.21415 1.93311 4.08766 1.9867 3.99603 2.08189L2.03877 4.14934C1.95407 4.23872 1.9076 4.35734 1.90929 4.48045V9.60381C1.90985 9.72636 1.95594 9.84422 2.03877 9.93473L3.99603 12.0024C4.0871 12.0981 4.21396 12.1519 4.34626 12.151ZM2.86384 4.67233L4.5477 2.89253H17.5574L19.2173 4.67233V9.4166L17.5334 11.1964H4.55238L2.86871 9.4166L2.86384 4.67233Z" fill="#666666"/>
<path d="M10.2323 6.90804H9.1434C8.94664 6.90823 8.76975 7.02835 8.69685 7.21105C8.62396 7.39375 8.66968 7.6025 8.81228 7.73798L11.5275 10.3044C11.6173 10.3884 11.7357 10.4347 11.8585 10.4339C11.9904 10.4332 12.1165 10.3796 12.2087 10.2853C12.296 10.1931 12.343 10.07 12.3395 9.94316C12.3357 9.81629 12.2819 9.69599 12.1896 9.60886L10.3474 7.86747C11.2819 7.8135 12.07 7.15221 12.2855 6.24132H12.9427C13.2076 6.24132 13.4224 6.02657 13.4224 5.76161C13.4224 5.49664 13.2076 5.2819 12.9427 5.2819H12.2855C12.2297 5.04298 12.1322 4.81549 11.9977 4.6103H12.9427C13.2076 4.6103 13.4224 4.39556 13.4224 4.13059C13.4224 3.86562 13.2076 3.65088 12.9427 3.65088H9.1434C8.87843 3.65088 8.66369 3.86562 8.66369 4.13059C8.66369 4.39556 8.87843 4.6103 9.1434 4.6103H10.2323C10.6824 4.60936 11.0915 4.87208 11.2781 5.2819H9.14808C8.88312 5.2819 8.66837 5.49664 8.66837 5.76161C8.66837 6.02657 8.88312 6.24132 9.14808 6.24132H11.2781C11.0874 6.64683 10.6803 6.90636 10.2323 6.90804Z" fill="#666666"/>
<path d="M22.0427 1.96213C21.8306 0.827314 20.8418 0.00356032 19.6873 0H2.39856C1.0741 0.000562126 0.000562164 1.0741 0 2.39856V11.6763C0.00168648 12.8313 0.82619 13.8213 1.96194 14.0316C2.17407 15.1664 3.16291 15.9901 4.3174 15.9937H21.6014C22.9259 15.9931 23.9994 14.9196 24 13.5951V4.32227C24.0006 3.16703 23.1781 2.17519 22.0427 1.96213ZM0.959423 11.681V2.40343C0.961671 1.60966 1.60478 0.966543 2.39856 0.964294H19.6826C20.4764 0.966543 21.1193 1.60966 21.1217 2.40343V11.681C21.1193 12.4749 20.4764 13.1179 19.6826 13.1201H2.39856C1.60478 13.1179 0.961671 12.4749 0.959423 11.681ZM23.0453 13.5998C23.043 14.3938 22.4001 15.0367 21.6061 15.0389H4.3174C3.70783 15.0374 3.16478 14.6537 2.95978 14.0795H19.6826C21.007 14.0791 22.0806 13.0056 22.0812 11.681V2.96465C22.6561 3.16853 23.0404 3.71233 23.0406 4.32227V13.5998H23.0453Z" fill="#666666"/>
</svg>
