<svg width="673" height="167" viewBox="0 0 673 167" fill="none" xmlns="http://www.w3.org/2000/svg">
<g clip-path="url(#clip0_51305_4167)">
<path d="M256.978 42.4216C232.407 42.4216 218.742 56.4735 218.742 84.9537C218.742 113.308 232.281 127.109 256.978 127.109H268.512C293.208 127.109 306.748 113.308 306.748 84.9537C306.748 56.4735 293.083 42.4216 268.512 42.4216H256.978ZM268.512 57.2263C284.809 57.2263 291.829 65.5069 291.829 84.8282C291.829 104.275 284.809 112.305 268.512 112.305H256.978C240.555 112.305 233.535 104.275 233.535 84.9537C233.535 65.5069 240.681 57.2263 256.978 57.2263H268.512Z" fill="#0090FF"/>
<path d="M-0.00671387 78.5651V159.865H14.2012V78.5651H-0.00671387Z" fill="#0090FF"/>
<path d="M50.4048 97.2759C50.4048 94.253 52.1666 92.3644 55.5631 92.3644C56.724 92.3003 57.8733 92.6243 58.8301 93.2853C59.7869 93.9464 60.4969 94.9071 60.8484 96.0162L85.6371 150.293C89.1607 159.996 94.5714 166.035 106.399 166.035C119.485 166.035 125.902 158.604 125.902 147.398V96.3106H110.931V146.767C110.966 147.426 110.857 148.086 110.613 148.699C110.369 149.313 109.995 149.866 109.517 150.321C109.038 150.776 108.467 151.122 107.842 151.334C107.217 151.547 106.554 151.622 105.898 151.553C104.746 151.577 103.614 151.253 102.649 150.624C101.684 149.995 100.931 149.09 100.487 148.027L75.6966 93.7495C72.173 84.047 66.8877 78.0081 55.06 78.0081C41.8549 78.0081 35.5566 85.4388 35.5566 96.5197V164.523H50.4048V97.2759Z" fill="#0090FF"/>
<path d="M125.904 97.2759C125.904 94.253 127.666 92.3644 131.062 92.3644C132.223 92.3003 133.373 92.6243 134.329 93.2853C135.286 93.9464 135.996 94.9071 136.348 96.0162L161.136 150.293C164.66 159.996 170.071 166.035 181.898 166.035C194.985 166.035 201.402 158.604 201.402 147.398V79.5203H186.43V146.769C186.465 147.428 186.357 148.087 186.112 148.701C185.868 149.315 185.494 149.868 185.016 150.323C184.537 150.778 183.966 151.123 183.341 151.336C182.717 151.549 182.053 151.623 181.397 151.555C180.246 151.578 179.114 151.255 178.149 150.626C177.184 149.997 176.43 149.092 175.986 148.028L151.196 93.7495C147.672 84.047 142.387 78.0081 130.559 78.0081C117.354 78.0081 111.056 85.4388 111.056 96.5197V147.732H125.904V97.2759Z" fill="#0090FF"/>
<path d="M309.227 165.754H326.661L337.425 125.472H374.165L375.686 119.617H339.063L348.19 85.1895H389.259L390.78 79.3346H332.394L309.227 165.754ZM404.704 166.69C411.291 166.725 417.72 164.676 423.074 160.836L421.787 165.754H437.934L453.145 108.961H436.296L423.308 157.557C420.251 158.584 417.055 159.137 413.83 159.196C404.821 159.196 402.481 154.161 405.055 144.91L414.883 108.961H398.035L388.206 144.793C384.111 159.899 392.184 166.69 404.704 166.69ZM461.101 165.754H477.95L501.117 79.3346H484.385L461.101 165.754ZM511.18 114.347H518.902L505.096 165.754H521.944L535.634 114.347H548.271L549.792 108.961H537.155L541.134 94.089C543.123 86.3605 545.931 84.3698 551.781 84.3698C553.536 84.3698 554.823 84.604 556.227 84.7211L557.631 79.803C554.252 79.0499 550.796 78.6961 547.335 78.7491C537.155 78.7491 527.327 82.9646 523.466 97.602L520.423 108.961H512.584L511.18 114.347ZM552.717 165.754H569.566L584.777 108.961H568.045L552.717 165.754ZM570.502 99.4756H587.351L591.329 84.7211H574.48L570.502 99.4756ZM592.85 165.754H609.699L632.867 79.3346H616.135L592.85 165.754ZM632.984 165.754H649.833L673 79.3346H656.268L632.984 165.754Z" fill="#6A03E9"/>
<path d="M282.9 133.418H243.474C239.304 133.418 235.924 136.801 235.924 140.974C235.924 145.147 239.304 148.53 243.474 148.53H282.9C287.07 148.53 290.45 145.147 290.45 140.974C290.45 136.801 287.07 133.418 282.9 133.418Z" fill="#0090FF"/>
<path d="M223.226 34.3417L206.938 22.4938C204.689 20.8581 201.541 21.3565 199.907 23.607C198.272 25.8575 198.77 29.0079 201.019 30.6436L217.307 42.4914C219.556 44.1271 222.703 43.6288 224.338 41.3783C225.972 39.1278 225.474 35.9774 223.226 34.3417Z" fill="#0090FF"/>
<path d="M312.023 42.4918L328.311 30.644C330.559 29.0083 331.057 25.8579 329.423 23.6074C327.788 21.3569 324.641 20.8585 322.392 22.4942L306.104 34.3421C303.855 35.9778 303.357 39.1282 304.992 41.3787C306.626 43.6291 309.774 44.1275 312.023 42.4918Z" fill="#0090FF"/>
<path d="M282.332 27.0856L290.841 8.82404C292.015 6.30286 290.926 3.30598 288.406 2.13033C285.887 0.954685 282.893 2.04546 281.718 4.56664L273.209 22.8282C272.034 25.3494 273.124 28.3463 275.644 29.5219C278.163 30.6976 281.157 29.6068 282.332 27.0856Z" fill="#0090FF"/>
<path d="M253.165 22.8266L244.657 4.56501C243.482 2.04383 240.487 0.953051 237.968 2.1287C235.449 3.30435 234.359 6.30122 235.534 8.82241L244.043 27.084C245.217 29.6052 248.212 30.6959 250.731 29.5203C253.25 28.3446 254.34 25.3478 253.165 22.8266Z" fill="#0090FF"/>
<path d="M282.9 151.888H243.474C239.304 151.888 235.924 155.271 235.924 159.444C235.924 163.617 239.304 167 243.474 167H282.9C287.07 167 290.45 163.617 290.45 159.444C290.45 155.271 287.07 151.888 282.9 151.888Z" fill="#0090FF"/>
</g>
<defs>
<clipPath id="clip0_51305_4167">
<rect width="673" height="167" fill="white"/>
</clipPath>
</defs>
</svg>
