<svg width="16" height="24" viewBox="0 0 16 24" fill="none" xmlns="http://www.w3.org/2000/svg">
<path d="M10.8125 13.125C10.5538 13.125 10.3438 13.335 10.3438 13.5938C10.3438 13.8525 10.5538 14.0625 10.8125 14.0625C11.0712 14.0625 11.2812 13.8525 11.2812 13.5938C11.2812 13.335 11.0712 13.125 10.8125 13.125Z" fill="#666666"/>
<path d="M8 2.8125C5.15692 2.8125 2.84375 5.12567 2.84375 7.96875C2.84375 10.8118 5.15692 13.125 8 13.125C10.8431 13.125 13.1562 10.8118 13.1562 7.96875C13.1562 5.12567 10.8431 2.8125 8 2.8125ZM8 12.1875C5.67383 12.1875 3.78125 10.2949 3.78125 7.96875C3.78125 5.64258 5.67383 3.75 8 3.75C10.3262 3.75 12.2188 5.64258 12.2188 7.96875C12.2188 10.2949 10.3262 12.1875 8 12.1875Z" fill="#666666"/>
<path d="M9.875 7.5H8.46875V6.09375C8.46875 5.83484 8.25891 5.625 8 5.625C7.74109 5.625 7.53125 5.83484 7.53125 6.09375V7.96875C7.53125 8.22766 7.74109 8.4375 8 8.4375H9.875C10.1339 8.4375 10.3438 8.22766 10.3438 7.96875C10.3438 7.70984 10.1339 7.5 9.875 7.5Z" fill="#666666"/>
<path d="M8 0C3.60602 0 0.03125 3.57477 0.03125 7.96875C0.03125 10.9142 0.920044 12.2932 5.98767 19.584C4.62683 19.9783 3.78125 20.7532 3.78125 21.6562C3.78125 22.3438 4.26337 22.9636 5.13879 23.4012C5.91095 23.7874 6.927 24 8 24C9.073 24 10.0891 23.7874 10.8612 23.4012C11.7366 22.9636 12.2188 22.3438 12.2188 21.6562C12.2188 20.7532 11.3732 19.9783 10.0123 19.584C15.1301 12.2201 15.9688 10.8864 15.9688 7.96875C15.9688 3.56287 12.3949 0 8 0V0ZM11.2812 21.6562C11.2812 22.32 9.87793 23.0625 8 23.0625C6.12207 23.0625 4.71875 22.32 4.71875 21.6562C4.71875 21.234 5.36145 20.6754 6.55841 20.4049C6.89349 20.8861 7.24524 21.3918 7.61511 21.924C7.80133 22.1917 8.19849 22.1918 8.38489 21.924L9.44159 20.4049C10.6385 20.6755 11.2812 21.234 11.2812 21.6562ZM8 20.8354C1.75574 11.8577 0.96875 10.7666 0.96875 7.96875C0.96875 4.09167 4.12292 0.9375 8 0.9375C11.8333 0.9375 15.0312 4.05249 15.0312 7.96875C15.0312 10.955 13.9799 12.1509 8 20.8354Z" fill="#666666"/>
<path d="M10.1187 14.8186C9.90739 14.6692 9.61497 14.719 9.46538 14.9303C9.33208 15.1183 8.15269 17.3509 7.61637 18.115C7.46769 18.327 7.51878 18.6193 7.73063 18.7681C7.94157 18.9163 8.23417 18.8665 8.38359 18.6537C8.94682 17.8513 10.0962 15.6819 10.2337 15.4673C10.3793 15.2564 10.3284 14.9671 10.1187 14.8186Z" fill="#666666"/>
</svg>
