<svg width="24" height="22" viewBox="0 0 24 22" fill="none" xmlns="http://www.w3.org/2000/svg">
<path d="M23.4981 10.1029H22.1909V6.276C22.1901 6.00187 21.9681 5.77978 21.6939 5.779H19.6712V2.52367C19.67 1.56346 18.8919 0.785345 17.9317 0.78418H2.98198C1.33568 0.785539 0.00135898 2.11986 0 3.76616V18.2288C0.00135898 19.8751 1.33568 21.2094 2.98198 21.2108H21.7238C21.9979 21.21 22.22 20.9879 22.2208 20.7138V16.7378H23.5029C23.7772 16.737 23.9991 16.5149 23.9999 16.2408V10.5999C23.9968 10.3248 23.7732 10.1033 23.4981 10.1029ZM0.993994 3.76616C0.993606 2.66811 1.88393 1.77798 2.98198 1.77817H17.9317C18.1295 1.77798 18.3192 1.85641 18.4592 1.99619C18.599 2.13617 18.6774 2.32584 18.6772 2.52367V5.779H2.98198C1.88393 5.77939 0.993606 4.88907 0.993994 3.79101V3.76616ZM21.2218 20.2168H2.98198C1.88393 20.2172 0.993606 19.3268 0.993994 18.2288V6.01255C1.53991 6.50314 2.24814 6.77416 2.98198 6.773H21.202V10.1029H18.3889C17.0167 10.1035 15.9045 11.2157 15.9039 12.5879V14.2579C15.9045 15.63 17.0167 16.7423 18.3889 16.7428H21.2268V20.2168H21.2218ZM23.0011 15.7438H18.3838C17.5615 15.7415 16.8954 15.0754 16.8929 14.2528V12.5879C16.8954 11.7655 17.5615 11.0994 18.3838 11.0969H23.0011V15.7438Z" fill="#666666"/>
<path d="M3.47899 4.27818H16.1922C16.4667 4.27818 16.6892 4.05569 16.6892 3.78118C16.6892 3.50666 16.4667 3.28418 16.1922 3.28418H3.47899C3.20448 3.28418 2.98199 3.50666 2.98199 3.78118C2.98199 4.05569 3.20448 4.27818 3.47899 4.27818Z" fill="#666666"/>
<path d="M18.8808 12.0908C18.6067 12.0916 18.3846 12.3137 18.3839 12.5878V14.2578C18.3839 14.5323 18.6065 14.7548 18.8808 14.7548C19.1554 14.7548 19.3778 14.5323 19.3778 14.2578V12.5878C19.3784 12.456 19.3262 12.3292 19.2328 12.2358C19.1396 12.1427 19.0129 12.0904 18.8808 12.0908Z" fill="#666666"/>
<path d="M10.9836 10.9627C11.2581 10.9627 11.4806 10.7403 11.4806 10.4657C11.4806 10.1912 11.2581 9.96875 10.9836 9.96875H7.04744C6.77293 9.96875 6.55044 10.1912 6.55044 10.4657C6.55044 10.7403 6.77293 10.9627 7.04744 10.9627H8.17559C8.64211 10.9618 9.06591 11.234 9.25908 11.6585H7.0523C6.77798 11.6585 6.5553 11.881 6.5553 12.1555C6.5553 12.43 6.77798 12.6525 7.0523 12.6525H9.25908C9.06417 13.0756 8.64133 13.3472 8.17559 13.3483H7.04744C6.84359 13.3485 6.66033 13.4728 6.58481 13.6621C6.50929 13.8515 6.55666 14.0676 6.7044 14.2082L9.51748 16.8671C9.61048 16.9541 9.73317 17.002 9.86033 17.0012C9.99701 17.0003 10.1277 16.9449 10.2232 16.8471C10.3137 16.7518 10.3624 16.6242 10.3587 16.4926C10.355 16.3612 10.2991 16.2365 10.2034 16.1465L8.29479 14.3423C9.26297 14.2864 10.0795 13.6013 10.3028 12.6576H10.9836C11.2581 12.6576 11.4806 12.4349 11.4806 12.1606C11.4806 11.8861 11.2581 11.6636 10.9836 11.6636H10.3028C10.2449 11.4159 10.144 11.1804 10.0046 10.9678L10.9836 10.9627Z" fill="#666666"/>
<path d="M9.01544 7.66748C5.80398 7.66748 3.20056 10.2709 3.20056 13.4824C3.20056 16.6938 5.80398 19.2972 9.01544 19.2972C12.2269 19.2972 14.8303 16.6938 14.8303 13.4824C14.8262 10.2726 12.2253 7.67156 9.01544 7.66748ZM9.01544 18.3032C6.353 18.3032 4.19456 16.145 4.19456 13.4824C4.19456 10.8199 6.353 8.66148 9.01544 8.66148C11.6781 8.66148 13.8363 10.8199 13.8363 13.4824C13.8338 16.1438 11.6769 18.3007 9.01544 18.3032Z" fill="#666666"/>
</svg>
