<svg width="24" height="24" viewBox="0 0 24 24" fill="none" xmlns="http://www.w3.org/2000/svg">
<path d="M23.4736 3.65217C23.4746 3.51445 23.4214 3.38189 23.3254 3.28331L20.195 0.152859C20.0969 0.0558281 19.9638 0.00257812 19.8261 0.00417187V0H6.78265C6.49465 0 6.26093 0.233719 6.26093 0.521719V9.39544L5.65882 9.40064C5.5211 9.40275 5.39013 9.45909 5.29362 9.55716L0.672071 14.2434C0.576071 14.341 0.522352 14.472 0.52179 14.6086V20.8643C0.52179 21.0046 0.578133 21.1393 0.678305 21.2373L2.72144 23.2387C2.81899 23.3342 2.94996 23.3874 3.08665 23.3874H3.09185C3.22957 23.3853 3.36054 23.3289 3.45705 23.2309L3.85826 22.8213C4.2798 23.0947 4.7718 23.2398 5.27426 23.2387H5.30191C5.63112 23.235 5.95671 23.1688 6.26088 23.0436V23.4782C6.26088 23.7662 6.4946 23.9999 6.7826 23.9999H22.9565C23.2445 23.9999 23.4782 23.7662 23.4782 23.4782V3.65217H23.4736ZM20.3478 1.7812L21.697 3.13041H20.3478V1.7812ZM5.29413 22.1953C4.8783 22.2037 4.4771 22.0425 4.18282 21.7482C4.08733 21.6459 3.95168 21.5911 3.81237 21.5985C3.67465 21.6006 3.54368 21.6569 3.44716 21.755L3.08196 22.128L1.56527 20.6452V14.8226L5.88316 10.44L6.26088 10.439V12.5218C6.26088 12.6454 6.30471 12.7649 6.38505 12.8593L7.44002 13.9341C7.53757 14.0322 7.67065 14.087 7.80888 14.087H10.9565V14.6014C10.9534 15.1164 10.7024 15.5979 10.2824 15.8959C10.0205 16.0764 9.70957 16.1734 9.39129 16.174H5.77146C5.63266 16.174 5.50015 16.2288 5.40208 16.3268L4.29443 17.4345C3.88798 17.8404 3.29163 17.9917 2.74071 17.8284L2.44437 18.8291C3.36209 19.1019 4.35602 18.8494 5.03271 18.1722L5.98751 17.2174H6.26088V21.839C5.98854 22.0649 5.64785 22.1906 5.29413 22.1953ZM7.30436 22.9565V17.2174H9.39133C10.8303 17.2195 11.998 16.0549 12 14.616C12 14.6134 12 14.6113 12 14.6087V14.087C11.9985 13.5115 11.532 13.0451 10.9565 13.0435H8.02436L7.30436 12.325V1.04348H19.3044V3.13045C19.3044 3.70697 19.7713 4.17394 20.3478 4.17394H22.4348V22.9566H7.30436V22.9565Z" fill="#666666"/>
<path d="M9.39132 3.13037H8.34784V4.17386H9.39132V3.13037Z" fill="#666666"/>
<path d="M11.4783 3.13037H10.4348V4.17386H11.4783V3.13037Z" fill="#666666"/>
<path d="M20.3478 6.26074H8.34784V7.30423H20.3478V6.26074Z" fill="#666666"/>
<path d="M20.3478 9.3916H8.34784V10.4351H20.3478V9.3916Z" fill="#666666"/>
<path d="M17.7391 3.13037H12.5217V4.17386H17.7391V3.13037Z" fill="#666666"/>
<path d="M20.3478 12.5215H19.3043V13.565H20.3478V12.5215Z" fill="#666666"/>
<path d="M20.3478 15.6523H19.3043V16.6958H20.3478V15.6523Z" fill="#666666"/>
<path d="M20.3478 18.2607H8.34784V19.3042H20.3478V18.2607Z" fill="#666666"/>
<path d="M14.4315 16.6124C14.3165 16.598 14.2065 16.5337 14.1284 16.4224L12.989 14.7862C12.8334 14.563 12.8659 14.2355 13.0615 14.0555C13.2578 13.8749 13.5428 13.9099 13.6978 14.133L14.5565 15.3649L16.964 13.1468C17.1597 12.9662 17.4447 13.0005 17.5997 13.2237C17.7553 13.4474 17.7228 13.7743 17.5272 13.9549L14.7647 16.4993C14.6665 16.5899 14.5465 16.6262 14.4315 16.6124Z" fill="#666666"/>
</svg>
