<svg width="20" height="24" viewBox="0 0 20 24" fill="none" xmlns="http://www.w3.org/2000/svg">
<path d="M19.4598 7.58512C19.8435 7.20044 19.8435 6.57787 19.4598 6.193L18.7121 5.44534C18.3273 5.06162 17.7047 5.06162 17.32 5.44534L16.405 6.36516C14.9963 5.18113 13.2866 4.41138 11.4664 4.14179V3.04981H11.9877C12.5387 3.04231 12.9838 2.59729 12.9913 2.0464V0.988804C12.9913 0.44771 12.5288 0 11.9877 0H7.99344C7.45234 0 6.99003 0.44771 6.99003 0.988804V2.0464C6.99925 2.59672 7.44312 3.04058 7.99344 3.04981H8.51493V4.14179C3.69427 4.85025 0 9.01164 0 14.0193C0 19.5236 4.48132 23.9999 9.98565 23.9999C15.4902 23.9999 19.9713 19.5236 19.9713 14.0193C19.9753 12.1145 19.4287 10.2491 18.3972 8.64771L19.4598 7.58512ZM18.0135 6.14381L18.7613 6.89165L17.8217 7.83107C17.6004 7.55572 17.3692 7.28998 17.1183 7.03423L18.0135 6.14381ZM7.97384 2.066V0.983808H12.0074V2.066H7.97384ZM9.49874 3.04981H10.4825V4.04841C10.2858 4.03861 10.148 4.03861 9.99064 4.03861C9.83327 4.03861 9.6955 4.04341 9.49874 4.04841V3.04981ZM9.99064 23.0161C5.02722 23.0161 0.993607 18.9777 0.993607 14.0193C0.993607 9.06083 5.02722 5.01742 9.99064 5.01742C14.9539 5.01742 18.9875 9.05603 18.9875 14.0193C18.9875 18.9825 14.9539 23.0161 9.99064 23.0161V23.0161Z" fill="#666666"/>
<path d="M9.99066 6.00098H9.89709C5.57832 6.05017 2.071 9.53288 1.97743 13.8418C1.94226 13.9104 1.92382 13.9863 1.92343 14.0632C1.92247 14.1441 1.94284 14.2238 1.98242 14.2946C2.12999 18.5445 5.60292 21.9683 9.87249 22.0272C9.89536 22.0313 9.91842 22.033 9.94147 22.032C9.96126 22.033 9.98106 22.0313 10.0005 22.0272C14.4178 22.0272 18.0087 18.4363 18.0087 14.019C18.0087 9.59687 14.4128 6.00098 9.99066 6.00098ZM10.4334 21.0336V20.1186C10.4334 19.8469 10.2132 19.6267 9.94147 19.6267C9.66977 19.6267 9.44957 19.8469 9.44957 20.1186V21.0286C6.00124 20.7631 3.24178 18.0084 2.98103 14.5601H3.84186C4.11356 14.5601 4.33376 14.3399 4.33376 14.0682C4.33376 13.7965 4.11356 13.5763 3.84186 13.5763H2.97123C3.19508 10.0792 5.9559 7.27839 9.44957 7.00438V7.9194C9.44957 8.1911 9.66977 8.41131 9.94147 8.41131C10.2132 8.41131 10.4334 8.1911 10.4334 7.9194V6.99958C13.9668 7.22747 16.7822 10.0429 17.0101 13.5763H16.0411C15.7694 13.5763 15.5492 13.7965 15.5492 14.0682C15.5492 14.3399 15.7694 14.5601 16.0411 14.5601H17.0003C16.7346 18.0378 13.9259 20.8171 10.4334 21.0336Z" fill="#666666"/>
</svg>
